<svg xmlns="http://www.w3.org/2000/svg" version="1.1" xmlns:xlink="http://www.w3.org/1999/xlink" width="2000" height="2000" viewBox="0 0 2000 2000"><rect width="2000" height="2000" x="0" y="0" id="background" stroke="transparent" fill="#eeeeee"></rect><svg xml:space="preserve" width="1500" height="1500" data-version="2" data-id="lg_qJQ6QY59uCmB8deR6o" viewBox="0 0 561 70" x="250" y="250">
    <path fill="#000000" d="M56.789 1.38q2.65 0 5.81 1.25 2.9 1.16 2.9 4.4v57.18q0 3.99-4.9 3.99-4.89 0-4.89-3.99V21.55l-2.41-.25-3.32 10.79-9.96 33.2q-.91 2.91-4.48 2.83-1.58-.09-2.74-.83-1.16-.75-1.58-2.16l-5.97-19.34q-1.83-5.73-3.66-11.66-1.82-5.94-3.98-13.16l-2.41.33v42.91q0 3.99-4.89 3.99-4.9 0-4.9-3.99V7.03q0-3.16 2.9-4.4 3.08-1.25 5.9-1.16 1.24 0 2.57.33 1.33.33 2.49.95 1.16.63 2.08 1.58.91.95 1.41 2.2l13.03 44.4q1.41-4.89 2.99-10.62 1.57-5.73 3.23-11.62 1.66-5.89 3.28-11.66 1.62-5.77 3.03-10.75.5-1.16 1.41-2.07.91-.92 2.08-1.54 1.16-.62 2.44-.95 1.29-.34 2.54-.34"></path>
    <rect width="60.09" height="66.82" x="-30.045" y="-33.41" fill="none" rx="0" ry="0" transform="matrix(1 0 0 1 35.954 35.29)"></rect>
    <path fill="#000000" d="M101.439 64.38q0 3.98-4.9 3.98-4.89 0-4.89-3.98V42.3l-18.6-35.36q-.49-1.07-.49-2.24 0-2.4 2.82-3.57h-.08q1.82-.66 2.9-.66 2.16 0 3.32 2.16l15.11 28.38q1.66-3.15 3.57-6.76 1.9-3.61 3.85-7.35 1.96-3.73 3.86-7.38 1.91-3.65 3.66-6.89.66-1 1.45-1.58.79-.58 1.95-.58t2.74.66h-.08q2.9 1.25 2.9 3.66 0 .49-.08 1.03-.09.54-.42 1.12-.74 1.5-1.87 3.66-1.12 2.15-3.15 6.01t-5.27 10.05q-3.24 6.18-8.3 15.89Z"></path>
    <rect width="47.97" height="67.89" x="-23.985" y="-33.945" fill="none" rx="0" ry="0" transform="matrix(1 0 0 1 97.044 34.915)"></rect>
    <path fill="#000000" d="M138.709 64.21q0 3.99-4.9 3.99t-4.9-3.99V6.78q0-1.91 1.08-3.45 1.08-1.53 4.15-1.53h28.22q2.99 0 3.16 4.15.16 4.23-3.16 4.23h-23.65Zm21.25-30.79q0 1.41-.54 2.7-.54 1.29-1.5 2.2-.95.91-2.2 1.45-1.24.54-2.74.54-2.82 0-4.81-1.99-1.99-1.99-1.99-4.9 0-2.9 1.99-4.9 1.99-1.99 4.81-1.99 1.5 0 2.74.54 1.25.54 2.2 1.5.96.95 1.5 2.2.54 1.24.54 2.65"></path>
    <rect width="36.662" height="66.4" x="-18.331" y="-33.2" fill="none" rx="0" ry="0" transform="matrix(1 0 0 1 147.74 35.5)"></rect>
    <path fill="#000000" d="M198.049 40.39h-6.39q-1.41 0-2.2-1.12-.79-1.12-.79-3.03 0-4.23 3.49-4.23h9.71q3.07 0 4.32-1.74 1.24-1.75 1.24-3.82V15.74q0-2.07-1.24-3.82-1.25-1.74-4.32-1.74h-17.51V64.3q0 3.98-4.9 3.98t-4.9-3.98V6.78q0-2.99 1.54-3.99 1.53-.99 3.69-.99h24.16q2.15 0 4.48.91 2.32.91 4.48 2.33h-.08q2.15 1.57 3.32 4.1 1.16 2.54 1.16 5.86v12.11q0 6.73-4.48 10.05-.92.66-1.95 1.24-1.04.58-2.12 1.16l13.28 21.92q.25.41.5 1.07.25.67.25 1.08 0 2-2.83 3.82v-.08q-1.9 1.16-3.23 1.16-1.91 0-3.07-1.91l.08.08Z"></path>
    <rect width="48.23" height="66.73" x="-24.115" y="-33.365" fill="none" rx="0" ry="0" transform="matrix(1 0 0 1 199.174 35.665)"></rect>
    <path fill="#000000" d="M240.709 64.21q0 3.99-4.98 3.99-4.89 0-4.89-3.99V5.37q0-3.99 4.89-3.99 4.98 0 4.98 3.99Z"></path>
    <rect width="9.87" height="66.82" x="-4.935" y="-33.41" fill="none" rx="0" ry="0" transform="matrix(1 0 0 1 236.274 35.29)"></rect>
    <path fill="#000000" d="M259.309 67.78q-3.07 0-4.15-1.57-1.08-1.58-1.08-3.49V6.78q0-1.91 1.08-3.45 1.08-1.53 4.15-1.53h28.88q3.07 0 3.24 4.15.16 4.23-3.24 4.23h-24.32V59.4h25.81q3.08 0 3.16 4.07.16 4.31-3.16 4.31Zm25.81-34.36q0 2.91-2.03 4.9-2.04 1.99-4.94 1.99-2.82 0-4.82-1.99-1.99-1.99-1.99-4.9 0-2.9 1.99-4.9 2-1.99 4.82-1.99 2.9 0 4.94 1.99 2.03 2 2.03 4.9"></path>
    <rect width="38.812" height="65.98" x="-19.406" y="-32.99" fill="none" rx="0" ry="0" transform="matrix(1 0 0 1 273.985 35.29)"></rect>
    <path fill="#000000" d="M338.569 5.37q0-3.99 4.9-3.99t4.9 3.99v57.27q0 2.9-3.08 4.23h.09q-1.33.58-2.82.91-1.5.34-2.91.34-1.08 0-2.24-.21-1.16-.21-2.2-.67-1.04-.45-1.91-1.24-.87-.79-1.37-1.95l-18.01-44.9-2.24.24v44.82q0 3.99-4.98 3.99-4.9 0-4.9-3.99V7.03q0-3.41 2.99-4.57 2.74-1.08 5.81-1.08 2.16 0 4.36.87 2.2.88 3.36 3.28l17.93 44.99 2.32-.25Z"></path>
    <rect width="46.57" height="66.82" x="-23.285" y="-33.41" fill="none" rx="0" ry="0" transform="matrix(1 0 0 1 325.584 35.29)"></rect>
    <path fill="#000000" d="M390.029 59.4q3.07 0 4.32-1.74 1.24-1.75 1.24-3.9V15.74q0-2.07-1.24-3.82-1.25-1.74-4.32-1.74h-19.42l-.08 54.12q0 1.82-1.41 2.9-1.42 1.08-3.49 1.08-4.9 0-4.9-3.98V6.78q0-2.99 1.54-3.99 1.53-.99 3.69-.99h26.15q2.15 0 4.48.91 2.32.91 4.48 2.33h-.08q2.16 1.57 3.32 4.1 1.16 2.54 1.16 5.86v39.42q0 6.72-4.48 10.04-2.16 1.58-4.44 2.45-2.29.87-4.44.87h-13.95q-1.41 0-2.2-1.16-.79-1.16-.79-3.07 0-4.15 3.57-4.15Z"></path>
    <rect width="44.74" height="66.48" x="-22.37" y="-33.24" fill="none" rx="0" ry="0" transform="matrix(1 0 0 1 383.599 35.54)"></rect>
    <path fill="#000000" d="M417.089 10.18q-2.91 0-3.07-4.23 0-4.15 3.07-4.15h36.44q2.74 0 4.23.87 1.49.87 1.66 2.37.08 1.41-.04 2.69-.13 1.29-.62 1.95l-32.71 49.72h30.05q3.07 0 3.07 4.07.17 4.31-3.07 4.31h-37.18q-5.48 0-5.9-3.32-.16-1.41 0-2.61.17-1.2.67-1.87 1.49-2.32 3.11-4.81 1.62-2.49 3.61-5.48 1.99-2.99 4.44-6.72 2.45-3.74 5.6-8.51 3.16-4.77 7.1-10.75 3.94-5.98 8.92-13.53Z"></path>
    <rect width="46.576" height="65.98" x="-23.288" y="-32.99" fill="none" rx="0" ry="0" transform="matrix(1 0 0 1 436.687 35.29)"></rect>
    <path fill="#000000" d="M473.199 67.78q-3.07 0-4.15-1.57-1.08-1.58-1.08-3.49V6.78q0-1.91 1.08-3.45 1.08-1.53 4.15-1.53h28.88q3.07 0 3.24 4.15.16 4.23-3.24 4.23h-24.32V59.4h25.82q3.07 0 3.15 4.07.17 4.31-3.15 4.31Zm25.81-34.36q0 2.91-2.03 4.9-2.04 1.99-4.94 1.99-2.82 0-4.82-1.99-1.99-1.99-1.99-4.9 0-2.9 1.99-4.9 2-1.99 4.82-1.99 2.9 0 4.94 1.99 2.03 2 2.03 4.9"></path>
    <rect width="38.817" height="65.98" x="-19.408" y="-32.99" fill="none" rx="0" ry="0" transform="matrix(1 0 0 1 487.877 35.29)"></rect>
    <path fill="#000000" d="M521.009 67.78q-3.08 0-4.15-1.57-1.08-1.58-1.08-3.49V6.78q0-1.91 1.08-3.45 1.07-1.53 4.15-1.53h28.88q3.07 0 3.24 4.15.16 4.23-3.24 4.23h-24.32V59.4h25.81q3.07 0 3.16 4.07.16 4.31-3.16 4.31Zm25.81-34.36q0 2.91-2.04 4.9-2.03 1.99-4.93 1.99-2.83 0-4.82-1.99-1.99-1.99-1.99-4.9 0-2.9 1.99-4.9 1.99-1.99 4.82-1.99 2.9 0 4.93 1.99 2.04 2 2.04 4.9"></path>
    <rect width="38.812" height="65.98" x="-19.406" y="-32.99" fill="none" rx="0" ry="0" transform="matrix(1 0 0 1 535.685 35.29)"></rect>
</svg></svg>